<svg xmlns="http://www.w3.org/2000/svg" viewBox="0 0 48 48"><rect width="48" height="48" rx="12" fill="#0a7d4f"/><g fill="none" stroke="#fff" stroke-width="3" stroke-linecap="round" stroke-linejoin="round"><path d="M17 19 C12 18 9 15 8 9"/><path d="M31 19 L35 14 L37.5 16 L41 8"/><path d="M37.5 8 H41 V11.5"/><path d="M15.5 18.5 C15.5 16.5 32.5 16.5 32.5 18.5 C32.5 24 30 27 29 31 C28.4 34 26.5 37 24 37 C21.5 37 19.6 34 19 31 C18 27 15.5 24 15.5 18.5 Z"/><path d="M21.5 32.5 V32.6 M26.5 32.5 V32.6"/></g></svg>
